<svg xmlns="http://www.w3.org/2000/svg" viewBox="0 0 512 512"><path d="M8.5 102.4c-4.7 0-8.5 3.8-8.5 8.5v145c0 4.7 3.8 8.5 8.5 8.5s8.6-3.8 8.6-8.5V111c0-4.8-3.7-8.6-8.5-8.6zM503.5 102.4c-4.8 0-8.6 3.8-8.6 8.5v145c0 4.7 3.7 8.5 8.5 8.5 4.7 0 8.5-3.8 8.5-8.5V111c0-4.8-3.8-8.6-8.5-8.6zM507.7 290h-34c-2.4 0-4.4 2-4.4 4.4v21.3c0 4.7-3.8 8.6-8.5 8.6s-8.5-3.8-8.5-8.6v-21.3c0-2.4-2-4.3-4.3-4.3h-25.6c-2.3 0-4.3 2-4.3 4.4v38.4c0 4.7-3.7 8.5-8.4 8.5s-8.5-3.8-8.5-8.5v-38.4c0-2.4-1.8-4.3-4.2-4.3h-25.6c-2.4 0-4.3 2-4.3 4.4v21.3c0 4.7-4 8.6-8.6 8.6-4.7 0-8.5-3.8-8.5-8.6v-21.3c0-2.4-2-4.3-4.4-4.3H320c-2.4 0-4.3 2-4.3 4.4v38.4c0 4.7-3.8 8.5-8.5 8.5s-8.5-3.8-8.5-8.5v-38.4c0-2.4-2-4.3-4.3-4.3h-25.6c-2.4 0-4.3 2-4.3 4.4v21.3c0 4.7-3.8 8.6-8.5 8.6s-8.5-3.8-8.5-8.6v-21.3c0-2.4-2-4.3-4.3-4.3h-25.6c-2.4 0-4.3 2-4.3 4.4v38.4c0 4.7-3.8 8.5-8.5 8.5s-8.5-3.8-8.5-8.5v-38.4c0-2.4-2-4.3-4.3-4.3h-25.6c-2.4 0-4.3 2-4.3 4.4v21.3c0 4.7-3.7 8.6-8.4 8.6s-8.5-3.8-8.5-8.6v-21.3c0-2.4-1.8-4.3-4.2-4.3h-25.6c-2.4 0-4.3 2-4.3 4.4v38.4c0 4.7-4 8.5-8.6 8.5-4.7 0-8.5-3.8-8.5-8.5v-38.4c0-2.4-2-4.3-4.4-4.3H64c-2.4 0-4.3 2-4.3 4.4v21.3c0 4.8-3.8 8.6-8.5 8.6s-8.5-3.8-8.5-8.6v-21.3c0-2.4-2-4.3-4.3-4.3h-34c-2.5 0-4.4 2-4.4 4.4v111c0 2.3 2 4.2 4.3 4.2h503.4c2.4 0 4.3-2 4.3-4.3v-111c0-2.3-2-4.2-4.3-4.2zM476 182.3L436.4 131c-2-2.7-5.6-3.7-8.8-2.5-3 1.2-5.2 4.4-5.2 8v42.7H89.6v-42.7c0-3.6-2-6.8-5.2-8-3.2-1.2-6.7-.2-8.8 2.6L36 182.4c-1.3 1.6-2 3.5-2 5.4s.7 4 2 5.5l39.6 51.2c1.5 2 3.8 3 6 3 1 0 2 0 2.8-.4 3-1.3 5.2-4.5 5.2-8v-42.7h332.8V239c0 3.5 2 6.7 5.2 8 1 .3 1.8.5 2.7.5 2.3 0 4.6-1 6-3L476 193c1.3-1.6 2-3.5 2-5.5s-.7-3.8-2-5.4z"/></svg>